{
	"asset":{
		"version":"2.0",
		"generator":"Created using the official Cinema 4D glTF Exporter 1.000x284978"
	},
	"scenes":[{
		"nodes":[0]
	}],
	"nodes":[{
		"name":"See-o.obj",
		"children":[1,
		2,
		3,
		4]
	},
	{
		"name":"object_1",
		"translation":[0.0,
		6.677210807800293,
		0.0],
		"rotation":[0.0,
		0.0,
		0.0,
		-1.0],
		"scale":[1.0,
		1.0,
		1.0],
		"mesh":0
	},
	{
		"name":"object_2",
		"translation":[0.0,
		6.677210807800293,
		0.0],
		"rotation":[0.0,
		0.0,
		0.0,
		-1.0],
		"scale":[1.0,
		1.0,
		1.0],
		"mesh":1
	},
	{
		"name":"object_3",
		"translation":[0.0,
		6.677210807800293,
		0.0],
		"rotation":[0.0,
		0.0,
		0.0,
		-1.0],
		"scale":[1.0,
		1.0,
		1.0],
		"mesh":2
	},
	{
		"name":"object_4",
		"translation":[0.0,
		6.677210807800293,
		0.0],
		"rotation":[0.0,
		0.0,
		0.0,
		-1.0],
		"scale":[1.0,
		1.0,
		1.0],
		"mesh":3
	}],
	"meshes":[{
		"name":"object_1",
		"primitives":[{
			"attributes":{
				"POSITION":1,
				"NORMAL":2,
				"TEXCOORD_0":3
			},
			"indices":0,
			"material":0
		}]
	},
	{
		"name":"object_2",
		"primitives":[{
			"attributes":{
				"POSITION":5,
				"NORMAL":6,
				"TEXCOORD_0":7
			},
			"indices":4,
			"material":1
		}]
	},
	{
		"name":"object_3",
		"primitives":[{
			"attributes":{
				"POSITION":9,
				"NORMAL":10,
				"TEXCOORD_0":11
			},
			"indices":8,
			"material":1
		}]
	},
	{
		"name":"object_4",
		"primitives":[{
			"attributes":{
				"POSITION":13,
				"NORMAL":14,
				"TEXCOORD_0":15
			},
			"indices":12,
			"material":2
		}]
	}],
	"bufferViews":[{
		"buffer":0,
		"byteOffset":0,
		"byteLength":46008,
		"target":34963
	},
	{
		"buffer":0,
		"byteOffset":46008,
		"byteLength":132256,
		"target":34962,
		"byteStride":32
	},
	{
		"buffer":1,
		"byteOffset":0,
		"byteLength":32844,
		"target":34963
	},
	{
		"buffer":1,
		"byteOffset":32844,
		"byteLength":106848,
		"target":34962,
		"byteStride":32
	},
	{
		"buffer":2,
		"byteOffset":0,
		"byteLength":34104,
		"target":34963
	},
	{
		"buffer":2,
		"byteOffset":34104,
		"byteLength":110080,
		"target":34962,
		"byteStride":32
	},
	{
		"buffer":3,
		"byteOffset":0,
		"byteLength":318456,
		"target":34963
	},
	{
		"buffer":3,
		"byteOffset":318456,
		"byteLength":1141856,
		"target":34962,
		"byteStride":32
	}],
	"accessors":[{
		"type":"SCALAR",
		"bufferView":0,
		"componentType":5123,
		"max":[4132],
		"count":23004,
		"byteOffset":0,
		"min":[0]
	},
	{
		"type":"VEC3",
		"bufferView":1,
		"componentType":5126,
		"max":[5.300456523895264,
		4.1751813888549809,
		1.0543237924575806],
		"count":4133,
		"byteOffset":0,
		"min":[-5.3004560470581059,
		-4.575181484222412,
		-1.0542840957641602]
	},
	{
		"type":"VEC3",
		"bufferView":1,
		"componentType":5126,
		"max":[0.9999688267707825,
		0.9999688267707825,
		0.9999688267707825],
		"count":4133,
		"byteOffset":12,
		"min":[-0.9999688267707825,
		-0.9999688267707825,
		-0.9999688267707825]
	},
	{
		"type":"VEC2",
		"bufferView":1,
		"componentType":5126,
		"max":[1.0,
		1.0],
		"count":4133,
		"byteOffset":24,
		"min":[0.0,
		0.0]
	},
	{
		"type":"SCALAR",
		"bufferView":2,
		"componentType":5123,
		"max":[3338],
		"count":16422,
		"byteOffset":0,
		"min":[0]
	},
	{
		"type":"VEC3",
		"bufferView":3,
		"componentType":5126,
		"max":[0.3703051507472992,
		28.203811645507814,
		2.1174609661102297],
		"count":3339,
		"byteOffset":0,
		"min":[-0.3648427724838257,
		23.043859481811525,
		-2.171917676925659]
	},
	{
		"type":"VEC3",
		"bufferView":3,
		"componentType":5126,
		"max":[1.0,
		1.0,
		1.0],
		"count":3339,
		"byteOffset":12,
		"min":[-1.0,
		-1.0,
		-1.0]
	},
	{
		"type":"VEC2",
		"bufferView":3,
		"componentType":5126,
		"max":[0.99853515625,
		1.0],
		"count":3339,
		"byteOffset":24,
		"min":[0.0,
		0.0519108772277832]
	},
	{
		"type":"SCALAR",
		"bufferView":4,
		"componentType":5123,
		"max":[3439],
		"count":17052,
		"byteOffset":0,
		"min":[0]
	},
	{
		"type":"VEC3",
		"bufferView":5,
		"componentType":5126,
		"max":[0.4119718074798584,
		7.800292491912842,
		2.355717420578003],
		"count":3440,
		"byteOffset":0,
		"min":[-0.40589481592178347,
		2.0597429275512697,
		-2.4163014888763429]
	},
	{
		"type":"VEC3",
		"bufferView":5,
		"componentType":5126,
		"max":[1.0,
		1.0,
		1.0],
		"count":3440,
		"byteOffset":12,
		"min":[-1.0,
		-1.0,
		-1.0]
	},
	{
		"type":"VEC2",
		"bufferView":5,
		"componentType":5126,
		"max":[0.99853515625,
		1.0],
		"count":3440,
		"byteOffset":24,
		"min":[0.0,
		0.0519108772277832]
	},
	{
		"type":"SCALAR",
		"bufferView":6,
		"componentType":5123,
		"max":[35682],
		"count":159228,
		"byteOffset":0,
		"min":[0]
	},
	{
		"type":"VEC3",
		"bufferView":7,
		"componentType":5126,
		"max":[5.866955280303955,
		25.02219009399414,
		1.5235719680786133],
		"count":35683,
		"byteOffset":0,
		"min":[-5.888955593109131,
		-5.223494529724121,
		-1.6122982501983643]
	},
	{
		"type":"VEC3",
		"bufferView":7,
		"componentType":5126,
		"max":[1.0,
		1.0,
		1.0],
		"count":35683,
		"byteOffset":12,
		"min":[-1.0,
		-1.0,
		-1.0]
	},
	{
		"type":"VEC2",
		"bufferView":7,
		"componentType":5126,
		"max":[0.9381222724914551,
		1.0],
		"count":35683,
		"byteOffset":24,
		"min":[0.0,
		0.00146484375]
	}],
	"materials":[{
		"pbrMetallicRoughness":{
			"baseColorFactor":[1.0,
			1.0,
			1.0,
			1.0],
			"metallicFactor":1.0,
			"roughnessFactor":1.0
		},
		"emissiveFactor":[0.0,
		0.0,
		0.0],
		"name":"",
		"alphaMode":"OPAQUE",
		"doubleSided":false
	},
	{
		"pbrMetallicRoughness":{
			"baseColorFactor":[0.8,
			0.8,
			0.8,
			1.0],
			"metallicFactor":1.0,
			"roughnessFactor":0.25
		},
		"emissiveFactor":[0.0,
		0.0,
		0.0],
		"name":"金属",
		"alphaMode":"OPAQUE",
		"doubleSided":false
	},
	{
		"pbrMetallicRoughness":{
			"baseColorFactor":[0.8,
			0.8,
			0.8,
			1.0],
			"metallicFactor":1.0,
			"roughnessFactor":0.3
		},
		"emissiveFactor":[0.0,
		0.0,
		0.0],
		"name":"塑料",
		"alphaMode":"OPAQUE",
		"doubleSided":false
	}],
	"buffers":[{
		"uri":"data:application/octet-stream;base64,",
		"byteLength":178264
	},
	{
		"uri":"data:application/octet-stream;base64,",
		"byteLength":139692
	},
	{
		"uri":"data:application/octet-stream;base64,",
		"byteLength":144184
	},
	{
		"uri":"data:application/octet-stream;base64,",
		"byteLength":1460312
	}]
}