<svg id="aacb4865-25a0-4662-ae97-262ffeacc9ab" data-name="图层 1" xmlns="http://www.w3.org/2000/svg" xmlns:xlink="http://www.w3.org/1999/xlink" viewBox="0 0 1913.95 1913.95">
  <defs>
    <style>
      .b616eef7-b3a8-4fcd-9738-62c95069d91c {
        fill: none;
        stroke-miterlimit: 10;
        stroke-width: 90px;
        stroke: url(#b4fb0edb-1fcb-4fa9-9bdf-dca6ead66b29);
      }

      .a2c9144c-a83b-4964-9060-e82895a3dea3 {
        fill: #595757;
      }
    </style>
    <linearGradient id="b4fb0edb-1fcb-4fa9-9bdf-dca6ead66b29" data-name="白色, 黑色" x1="-685.21" y1="301.73" x2="1228.74" y2="301.73" gradientTransform="translate(1362.5 978.16) rotate(135)" gradientUnits="userSpaceOnUse">
      <stop offset="0" stop-color="#fff"/>
      <stop offset="1" stop-color="#231815"/>
    </linearGradient>
  </defs>
  <circle class="b616eef7-b3a8-4fcd-9738-62c95069d91c" cx="956.97" cy="956.97" r="911.97"/>
  <g>
    <path class="a2c9144c-a83b-4964-9060-e82895a3dea3" d="M-378.44,327.2q-2.62-18-14.42-27.15t-29.76-9.17a61.47,61.47,0,0,0-17.6,2.81,41.78,41.78,0,0,0-17.22,10.48q-7.86,7.68-13.11,21.34t-5.24,35.76a104.79,104.79,0,0,0,2.81,24,65.41,65.41,0,0,0,9,21.34,48.47,48.47,0,0,0,15.91,15.16q9.74,5.82,23.59,5.81,18.72,0,30.89-11.61t15.16-32.57h42.68q-6,37.81-28.64,57.84t-60.09,20q-22.85,0-40.25-7.67a85.14,85.14,0,0,1-29.39-21A89,89,0,0,1-512.29,401a123.51,123.51,0,0,1-6.18-39.68,135.7,135.7,0,0,1,6-40.81,93.4,93.4,0,0,1,18-33.14,84.15,84.15,0,0,1,29.77-22.09q17.78-8,41.74-8.05a116.7,116.7,0,0,1,32,4.31,84.55,84.55,0,0,1,27,12.91,68.81,68.81,0,0,1,19.28,21.72q7.49,13.11,9,31.08Z" transform="translate(697.44 596.27)"/>
    <path class="a2c9144c-a83b-4964-9060-e82895a3dea3" d="M-212.2,461.23q-23.22,0-41.38-7.67a88,88,0,0,1-30.7-21.16,90.29,90.29,0,0,1-19.09-32.19A123.91,123.91,0,0,1-309.93,359a122.73,122.73,0,0,1,6.56-40.81A90.42,90.42,0,0,1-284.28,286a88.28,88.28,0,0,1,30.7-21.15q18.17-7.68,41.38-7.68t41.37,7.68A88.46,88.46,0,0,1-140.13,286,90.56,90.56,0,0,1-121,318.21,122.73,122.73,0,0,1-114.49,359,123.91,123.91,0,0,1-121,400.21a90.43,90.43,0,0,1-19.09,32.19,88.22,88.22,0,0,1-30.7,21.16Q-189,461.23-212.2,461.23Zm0-33.69q14.22,0,24.7-6a52.13,52.13,0,0,0,17.23-15.73,68.66,68.66,0,0,0,9.92-21.9,98,98,0,0,0,3.18-24.9,98.79,98.79,0,0,0-3.18-24.71,66.17,66.17,0,0,0-9.92-21.9,52.88,52.88,0,0,0-17.23-15.54q-10.47-6-24.7-6t-24.72,6a52.75,52.75,0,0,0-17.22,15.54,66.17,66.17,0,0,0-9.92,21.9A98.79,98.79,0,0,0-267.24,359a98,98,0,0,0,3.18,24.9,68.66,68.66,0,0,0,9.92,21.9,52,52,0,0,0,17.22,15.73Q-226.43,427.54-212.2,427.54Z" transform="translate(697.44 596.27)"/>
    <path class="a2c9144c-a83b-4964-9060-e82895a3dea3" d="M-78.92,262.42h40.43v27h1.13a109.36,109.36,0,0,1,10.48-13.1,57.27,57.27,0,0,1,12.54-10.11,63.5,63.5,0,0,1,15.92-6.55,79.06,79.06,0,0,1,20.59-2.44,70,70,0,0,1,32.76,7.87,44.48,44.48,0,0,1,21.53,24.33,86.16,86.16,0,0,1,25.08-23.59q14.24-8.61,35.57-8.61,30.69,0,47.74,15t17,50.17V456H159.2V342.92q0-11.6-.75-21.15a43.3,43.3,0,0,0-4.3-16.48,24.63,24.63,0,0,0-10.68-10.67q-7.11-3.74-19.46-3.74-21.72,0-31.46,13.48t-9.73,38.19V456H40.14V331.69q0-20.22-7.3-30.51T6.07,290.88a39.06,39.06,0,0,0-15.91,3.37A39.49,39.49,0,0,0-23.32,304a48.6,48.6,0,0,0-9.36,15.73,59.57,59.57,0,0,0-3.56,21.34V456H-78.92Z" transform="translate(697.44 596.27)"/>
    <path class="a2c9144c-a83b-4964-9060-e82895a3dea3" d="M247.93,188.67h42.68V229.1H247.93Zm0,73.75h42.68V456H247.93Z" transform="translate(697.44 596.27)"/>
    <path class="a2c9144c-a83b-4964-9060-e82895a3dea3" d="M337,262.42h40.44v28.46l.75.75a71.57,71.57,0,0,1,25.46-25.27,67.82,67.82,0,0,1,34.82-9.18q31.81,0,50.17,16.48T507,323.08V456H464.33V334.31q-.75-22.83-9.73-33.13t-28.08-10.3a46.38,46.38,0,0,0-19.47,3.93,42.15,42.15,0,0,0-14.6,10.86A50.9,50.9,0,0,0,383.09,322a58.12,58.12,0,0,0-3.37,19.85V456H337Z" transform="translate(697.44 596.27)"/>
    <path class="a2c9144c-a83b-4964-9060-e82895a3dea3" d="M730.91,445.88q0,43.81-24.52,65.34t-70.58,21.53a147.55,147.55,0,0,1-29.39-3,87.38,87.38,0,0,1-27-10.11,64.81,64.81,0,0,1-20.4-18.72q-8.25-11.61-9.74-28.45H592a34,34,0,0,0,6.36,14.6,32.75,32.75,0,0,0,10.67,8.8A40.49,40.49,0,0,0,622.71,500a125.56,125.56,0,0,0,15.72.94q25.85,0,37.82-12.73t12-36.69V421.92h-.75A65,65,0,0,1,663,447a65.81,65.81,0,0,1-33.5,9q-23.22,0-39.5-8.05a75,75,0,0,1-27-22.09,91.75,91.75,0,0,1-15.54-32.38,153,153,0,0,1-4.87-39.32,114.32,114.32,0,0,1,6-37.06A94.42,94.42,0,0,1,565.8,286.2a82.53,82.53,0,0,1,27.51-21.15q16.29-7.87,36.89-7.87a74.27,74.27,0,0,1,33.69,7.68q15.35,7.68,23.59,24.15h.75V262.42h42.68ZM636.19,422.3q14.22,0,24.14-5.81a47.33,47.33,0,0,0,16.1-15.35,67.67,67.67,0,0,0,9-21.71,108.86,108.86,0,0,0,2.81-24.53,95.4,95.4,0,0,0-3-24,64.5,64.5,0,0,0-9.17-20.59A44.44,44.44,0,0,0,660,296.12q-9.93-5.24-23.77-5.24-14.24,0-24,6a47.85,47.85,0,0,0-15.72,15.54,66.77,66.77,0,0,0-8.61,21.71,114.36,114.36,0,0,0-2.62,24.15,91.67,91.67,0,0,0,3,23.4,64.6,64.6,0,0,0,9.17,20.41,49,49,0,0,0,15.73,14.6Q622.71,422.29,636.19,422.3Z" transform="translate(697.44 596.27)"/>
    <path class="a2c9144c-a83b-4964-9060-e82895a3dea3" d="M777.33,405.45h52V456h-52Z" transform="translate(697.44 596.27)"/>
    <path class="a2c9144c-a83b-4964-9060-e82895a3dea3" d="M881.41,405.45h52V456h-52Z" transform="translate(697.44 596.27)"/>
    <path class="a2c9144c-a83b-4964-9060-e82895a3dea3" d="M985.5,405.45h52V456h-52Z" transform="translate(697.44 596.27)"/>
  </g>
</svg>
